<?xml version="1.0" encoding="UTF-8" standalone="no"?>
<svg
   width="256"
   height="256"
   viewBox="0 0 256 256"
   version="1.1"
   id="svg1"
   sodipodi:docname="dauntless.svg"
   xml:space="preserve"
   inkscape:version="1.4.4 (dcaf3e7, 2026-05-05)"
   inkscape:export-filename="ico.png"
   inkscape:export-xdpi="96"
   inkscape:export-ydpi="96"
   xmlns:inkscape="http://www.inkscape.org/namespaces/inkscape"
   xmlns:sodipodi="http://sodipodi.sourceforge.net/DTD/sodipodi-0.dtd"
   xmlns="http://www.w3.org/2000/svg"
   xmlns:svg="http://www.w3.org/2000/svg"><defs
     id="defs1" /><sodipodi:namedview
     id="namedview1"
     pagecolor="#ffffff"
     bordercolor="#000000"
     borderopacity="0.25"
     inkscape:showpageshadow="2"
     inkscape:pageopacity="0.0"
     inkscape:pagecheckerboard="0"
     inkscape:deskcolor="#d1d1d1"
     inkscape:zoom="1.5699592"
     inkscape:cx="153.82565"
     inkscape:cy="151.91478"
     inkscape:window-width="1300"
     inkscape:window-height="790"
     inkscape:window-x="0"
     inkscape:window-y="33"
     inkscape:window-maximized="0"
     inkscape:current-layer="svg1" /><rect
     style="fill:#1a1613;fill-opacity:1;stroke:#f19e4b;stroke-opacity:1;stroke-width:2.1;stroke-dasharray:none"
     id="rect10"
     width="251.49895"
     height="250.53535"
     x="2.2505264"
     y="2.7323227"
     ry="19.533089" /><g
     id="g1"
     transform="matrix(0,-0.91120139,0.91120139,0,34.779569,244.90648)"
     style="fill:#f19e4b;fill-opacity:1"><path
       id="path3"
       d="m 180.16602,11.974609 c -2.94089,-0.02336 -5.91508,0.189766 -8.95508,0.634766 -13.1,1.92 -24.72023,7.64 -34.99024,17.25 -11.92,11.14 -17.7707,20.450859 -17.2207,27.380859 0.33,4.16 0.22016,4.369141 -2.33984,4.369141 -2.36,0 -2.9393,0.7 -4.7793,5.75 -3.87,10.64 -2.17109,9.619375 -15.621094,9.359375 -11.16,-0.21 -18.660157,0.631484 -36.160157,4.021484 -4.51,0.88 -6.869843,0.918672 -8.589843,0.138672 -2.890001,-1.32 -5.480078,-6.530234 -6.330078,-12.740234 -0.510876,-4.8926 -1.168204,-4.229596 1.65039,-5.478516 1.09,-0.14 32.45122,-0.94044 45.75,-1.15039 6.98,0.16 10.469532,-5.290313 6.769531,-10.570313 -1.5,-2.14 -8.449531,-3.300078 -23.019531,-3.830078 -2.75,-0.1 -11.53,-0.690313 -19.5,-1.320313 -7.97,-0.629999 -22.480469,-1.150126 -32.230469,-1.160156 0,0 -15.6860584,-0.01965 -15.7187496,-0.01953 -2.1303909,0.0075 -3.640625,2.5 -3.640625,2.5 C 2.8202345,50.809375 2.96,58.969141 5.5,62.369141 6.63,63.879141 8.4094531,65.17 9.4394531,65.25 c 1.0399999,0.08001 2.7906249,0.199766 3.8906249,0.259766 1.79,0.11 2.029064,0.929375 2.289063,7.859375 0.160001,4.26 0.771328,9.540234 1.361328,11.740234 1.395308,5.187681 1.894999,27.976895 0.169922,34.390625 -0.59,2.2 -1.201328,7.48023 -1.361329,11.74023 -0.259998,6.93 -0.499062,7.74938 -2.289062,7.85938 -1.1,0.06 -2.850625,0.17976 -3.890625,0.25977 -1.03,0.08 -2.8094531,1.37085 -3.9394531,2.88085 -2.54,3.4 -2.6797655,11.55977 -0.2597657,15.25977 0,0 1.1739916,2.50306 3.640625,2.5 L 24.769531,159.9805 C 34.519531,159.97047 49.03,159.45031 57,158.82031 64.97,158.19031 73.75,157.6 76.5,157.5 91.07,156.97 98.019531,155.80992 99.519531,153.66992 103.21953,148.38992 99.73,142.93961 92.75,143.09961 79.45122,142.88966 48.09,142.08922 47,141.94922 c -2.818594,-1.24892 -2.161266,-0.58592 -1.650391,-5.47852 0.85,-6.21 3.440078,-11.42023 6.330079,-12.74023 1.719999,-0.78 4.079843,-0.74133 8.589843,0.13867 17.5,3.39 25.000157,4.23148 36.160157,4.02148 13.450002,-0.26 11.751092,-1.28062 15.621092,9.35938 1.84,5.05 2.4193,5.75 4.7793,5.75 2.56,0 2.66984,0.20914 2.33984,4.36914 -0.55,6.93 5.3007,16.24086 17.2207,27.38086 10.27001,9.61 21.89024,15.33 34.99024,17.25 12.16,1.78 23.25945,-0.14086 35.43945,-6.13086 7.26,-3.57 10.32047,-5.90836 18.73047,-14.31836 15.09288,-14.16647 22.83398,-34.0415 26.54102,-54.0918 1.29181,-8.12483 1.4305,-19.586638 -0.16992,-30.308589 -3.36748,-20.510668 -11.94976,-39.359222 -26.54102,-54.091797 -8.41,-8.41 -11.47047,-10.74836 -18.73047,-14.31836 -9.135,-4.4925 -17.66172,-6.695539 -26.48437,-6.765625 z"
       sodipodi:nodetypes="scccscccccccccscsccccccccccccscscccccccccscccccccccs"
       style="fill:#f19e4b;fill-opacity:1" /></g><g
     id="g2"
     transform="matrix(1,0,0,-1,-0.17034808,204.60938)" /></svg>
